<?xml version="1.0" encoding="UTF-8"?>
<svg width="40px" height="40px" viewBox="0 0 40 40" version="1.1" xmlns="http://www.w3.org/2000/svg" xmlns:xlink="http://www.w3.org/1999/xlink">
    <title>Icon/Davivienda/Casita Copy</title>
    <g id="Header-menú" stroke="none" stroke-width="1" fill="none" fill-rule="evenodd">
        <g id="A004-Davicom-menu-movil" transform="translate(-16, -16)" fill-rule="nonzero">
            <g id="Header" transform="translate(16, 16)">
                <g id="Icon/Davivienda/Casita-Copy" transform="translate(3.3333, 6.6667)">
                    <g id="logo-davivienda" transform="translate(0, 0)">
                        <path d="M23.7477172,2.75366695 C23.7022773,2.4961742 23.6113975,2.26897472 23.6113975,2.04177524 C23.5811043,1.46620321 23.8840369,1.08753741 24.4596089,0.996657616 C24.5959286,0.966364352 24.7473949,0.95121772 24.8837146,0.95121772 C25.731926,0.95121772 26.5649908,0.95121772 27.4132022,0.95121772 C27.5646685,0.95121772 27.7161349,0.966364352 27.8676012,0.981510984 C28.4431732,1.07239078 28.7309592,1.40561669 28.7309592,1.99633534 C28.7309592,2.39014778 28.6249328,2.75366695 28.534053,3.13233276 C28.3522934,3.87451773 28.246267,4.61670271 28.1705338,5.37403432 C28.1553872,5.54064728 28.2159737,5.61638044 28.3371468,5.70726023 C29.397411,6.4948851 30.4576753,7.28250998 31.457353,8.13072138 C31.9723385,8.55482708 32.4418841,9.02437268 32.8205499,9.58479807 C32.9568696,9.78170429 33.0780427,9.99375714 33.1689224,10.2209566 C33.5324416,11.1297546 33.2900955,11.9325261 32.4721774,12.4778048 C31.8360188,12.9019105 31.0938338,13.0533768 30.3516489,13.1442566 C29.7003437,13.2199898 29.0490385,13.1594033 28.3977333,13.1139634 C28.2008271,13.1139634 28.1705338,13.1594033 28.1856805,13.3260162 C28.2765602,14.734653 28.7461058,16.0069701 29.4428509,17.2187007 C29.685197,17.6428064 29.9729831,18.0517655 30.2759157,18.4304313 C31.0635406,19.4452556 31.5633794,20.5661064 31.5482328,21.8687168 C31.5330862,23.4742598 30.8363411,24.7768702 29.6700504,25.8371344 C28.4583198,26.9428386 27.0042431,27.5487039 25.3987001,27.8213432 C24.0203566,28.0485427 22.6420131,27.9879562 21.2636695,27.7001702 C21.1424965,27.6698769 21.0364701,27.6850235 20.915297,27.7153168 C19.0825545,28.2151557 17.2195187,28.3817686 15.3261897,28.2151557 C14.326512,28.1242759 13.3268343,27.9879562 12.3574498,27.6850235 C12.26657,27.6547303 12.1908369,27.6850235 12.1151037,27.6850235 C10.9791063,27.9273697 9.82796223,28.0333961 8.66167155,27.912223 C6.51084978,27.6850235 4.60237412,26.9428386 3.14829743,25.276709 C2.2394995,24.246738 1.75480727,23.0350075 1.8153938,21.6566639 C1.86083369,20.4297867 2.36067256,19.3543758 3.11800417,18.400138 C4.19341505,17.0217945 4.93560003,15.4919846 5.14765288,13.7349753 C5.16279951,13.583509 5.16279951,13.416896 5.19309278,13.2654297 C5.20823941,13.1139634 5.14765288,13.0988167 5.01133319,13.0988167 C4.22370832,13.1442566 3.43608344,13.2048432 2.64845857,13.0836701 C2.01230002,12.9776437 1.40643473,12.8110307 0.861155969,12.4475116 C0.0432378304,11.9173794 -0.199108285,11.1449012 0.164410888,10.2361033 C0.4521969,9.52421154 0.952035762,8.96378615 1.51246115,8.44880066 C2.92109795,7.19163019 4.42061454,6.0707794 5.98071765,5.01051515 C8.38903217,3.37467887 10.8882265,1.89030892 13.584327,0.784604766 C14.1296058,0.557405283 14.6748845,0.390792329 15.2353099,0.209032742 C16.2804275,-0.109046534 17.3103985,-0.0484600051 18.3403695,0.284765903 C20.1125255,0.845191294 21.778655,1.66310943 23.3993447,2.55676073 C23.5053711,2.61734726 23.6265442,2.67793379 23.7477172,2.75366695 Z" id="Path" fill="#1D1D1B"></path>
                        <path d="M29.276238,12.7352976 C28.2311203,12.674711 27.1708561,12.5989779 26.1105918,12.5232447 C25.3532602,12.4778048 24.580782,12.4172183 23.8234504,12.3717784 C21.5211623,12.2506053 19.2188742,12.099139 16.9165861,12.0839924 C15.1747234,12.0839924 13.4480073,12.1597255 11.7061446,12.2506053 C10.3126545,12.3263385 8.90401767,12.4020717 7.5105275,12.4929515 C6.48055651,12.553538 5.43543889,12.6292711 4.4054679,12.7050043 C3.57240313,12.7504442 2.76963163,12.674711 2.02744665,12.2506053 C1.48216789,11.9325261 1.10350208,11.4932737 1.04291556,10.8419685 C0.997475659,10.3118364 1.19438188,9.85743745 1.49731452,9.44847838 C1.89112696,8.91834626 2.37581919,8.46394729 2.87565805,8.03984159 C5.98071765,5.40432759 9.35841663,3.19291929 13.0693415,1.48134985 C13.9175529,1.08753741 14.7960576,0.769458134 15.7048555,0.557405283 C16.6590934,0.3302058 17.5678913,0.496818754 18.4766892,0.784604766 C20.051939,1.29959026 21.5363089,2.04177524 22.975239,2.84454674 C25.610753,4.3289167 28.1099473,6.01019287 30.3970888,7.99440169 C30.8514877,8.3730675 31.2755934,8.78202657 31.6694059,9.23642553 C31.9723385,9.5999447 32.199538,9.99375714 32.2752711,10.4633027 C32.3812976,11.0994613 32.1540981,11.6144468 31.6694059,12.0082592 C30.9878074,12.5838312 30.1547426,12.7050043 29.276238,12.7352976 Z" id="Path" fill="#F39600"></path>
                        <path d="M21.8543882,27.3972375 C22.5056934,27.1245982 23.1267053,26.8065189 23.6416908,26.3369733 C24.0506499,25.9583075 24.3838758,25.5342018 24.414169,24.9434831 C24.4293157,24.413351 24.1566763,24.0649785 23.717424,23.837779 C23.2478784,23.5954329 22.7328929,23.4439665 22.233054,23.2470603 C21.7938017,23.0804474 21.3394027,22.9138344 20.8850037,22.7472215 C20.7638307,22.7017816 20.7183908,22.6714883 20.7335374,22.5048753 C21.08191,20.5509598 20.9758835,18.6424841 20.2942851,16.7794484 C19.9762058,15.8857971 19.5066602,15.0830256 18.7644752,14.4771603 C17.3103985,13.295723 15.2807498,13.5077758 14.0690192,14.9618525 C13.2813944,15.9160903 12.8572887,17.0369411 12.6149426,18.2335251 C12.3271565,19.6573085 12.3120099,21.0962385 12.5846493,22.520022 C12.6149426,22.6563417 12.5846493,22.7017816 12.4483296,22.7472215 C11.6455581,23.0501541 10.82764,23.3530867 10.0248684,23.6560194 C9.97942855,23.671166 9.93398866,23.6863126 9.90369539,23.7014593 C8.8282845,24.1407116 8.60108502,25.0495095 9.32812337,25.9583075 C9.85825549,26.6247593 10.5852938,27.0185717 11.3577721,27.3517976 C11.4183586,27.3820909 11.4789451,27.4123842 11.5849716,27.4426774 C11.3577721,27.5184106 11.1457192,27.5335572 10.948813,27.5487039 C8.93431093,27.7607567 7.02583527,27.4578241 5.32941247,26.30668 C3.90562904,25.3372956 2.98168448,24.0195386 2.69389846,22.3079691 C2.49699225,21.1568251 2.69389846,20.0511209 3.33005702,19.0665898 C4.01165547,18.0063256 4.61752075,16.9006214 5.02647982,15.7040375 C5.28397257,14.9467059 5.48087879,14.1742276 5.54146532,13.3866028 C5.54146532,13.1896965 5.61719848,13.0988167 5.82925133,13.0988167 C6.48055651,13.0685235 7.14700833,13.0230836 7.79831352,12.9927903 C9.41900316,12.9019105 11.0548394,12.8110307 12.6755291,12.7352976 C13.8418198,12.674711 15.0232571,12.6292711 16.2046944,12.6141245 C18.0677301,12.5989779 19.9307659,12.6898577 21.7938017,12.7958841 C22.7328929,12.841324 23.6871307,12.8867639 24.6262219,12.9473504 C25.610753,13.0079369 26.5952841,13.0685235 27.5798152,13.1139634 C27.7615748,13.1139634 27.8070146,13.2048432 27.8221613,13.3563095 C27.958481,14.8709727 28.4734665,16.2644629 29.1550649,17.5973665 C29.3822644,18.0214722 29.6246105,18.4455779 29.8972499,18.854537 C30.9423675,20.3994935 31.002954,22.0353297 30.2607691,23.7014593 C29.3671178,25.6856681 27.7767214,26.8368121 25.7016328,27.3820909 C24.4293157,27.7153168 23.1569986,27.7153168 21.8695348,27.5184106 C21.8392416,27.4881173 21.8392416,27.4578241 21.8695348,27.4275308 L21.8543882,27.3972375 Z" id="Path" fill="#E10517"></path>
                        <path d="M20.2185519,20.581253 C20.2185519,22.3079691 19.9610592,23.7166059 19.5066602,25.1100961 C19.4612203,25.2312691 19.4157804,25.276709 19.2794607,25.2464158 C17.5224514,24.9586298 15.7805887,24.9737764 14.0235793,25.2464158 C13.9326996,25.2464158 13.8569664,25.276709 13.8115265,25.1403893 C13.0390483,22.7472215 12.7815555,20.3237603 13.5085939,17.8700059 C13.75094,17.0217945 14.1447524,16.2341696 14.8112042,15.6131577 C15.9017617,14.5528934 17.4012783,14.5680401 18.5069825,15.6131577 C19.1885809,16.2796095 19.5823934,17.1126743 19.8398861,18.0063256 C20.1125255,18.9302701 20.2185519,19.8693613 20.2185519,20.5661064 L20.2185519,20.581253 Z" id="Path" fill="#FEDE00"></path>
                        <path d="M21.9301214,27.1094515 C22.1724675,26.5793194 22.0967343,26.3218267 21.6423353,26.018894 C21.0970566,25.6553748 20.4760447,25.4887619 19.8398861,25.3524422 C19.6581265,25.3070023 19.59754,25.276709 19.6732732,25.0646562 C20.2034053,23.4894064 20.460898,21.8535702 20.3700182,20.1874406 C20.2942851,18.7485106 19.9913524,17.3550204 19.1885809,16.1432898 C18.7190353,15.4313981 18.0980234,14.8709727 17.2346654,14.6740665 C16.2804275,14.4620136 15.4625094,14.734653 14.7657643,15.3859582 C13.9478462,16.1432898 13.5085939,17.1126743 13.2359545,18.1577919 C12.7512622,20.0208277 12.842142,21.89901 13.2359545,23.7620458 C13.3419809,24.2164448 13.463154,24.6708437 13.6146203,25.1100961 C13.6752068,25.2615624 13.6449135,25.3221489 13.4783006,25.3524422 C12.9481685,25.4584686 12.4180363,25.6099349 11.9333441,25.8522811 C11.7818778,25.9280142 11.6455581,26.018894 11.5092384,26.1249204 C11.1457192,26.4429997 11.115426,26.7004925 11.3880653,27.1094515 C11.1760125,27.0640116 11.0245462,26.9579852 10.8579332,26.8519588 C10.3278011,26.5490261 9.87340213,26.1703603 9.54017622,25.6553748 C9.41900316,25.4584686 9.32812337,25.2312691 9.2978301,25.0040696 C9.23724357,24.4436443 9.50988295,24.0195386 10.085455,23.8074857 C10.9033731,23.5045531 11.7212913,23.2016204 12.5392094,22.8986878 C12.6906757,22.8381012 12.7512622,22.7926613 12.720969,22.5957551 C12.3877431,20.7327194 12.4634762,18.8999769 13.0844882,17.0975276 C13.3874208,16.2038763 13.8418198,15.3708116 14.5840047,14.7497997 C15.9774949,13.5986556 17.9768504,13.8107085 19.143141,15.2041986 C19.885326,16.0978499 20.2639918,17.1278209 20.4911913,18.2486717 C20.7941239,19.6876017 20.7941239,21.1416784 20.5366312,22.5806085 C20.5063379,22.7775147 20.5669245,22.8381012 20.7335374,22.8986878 C21.5363089,23.216767 22.3390804,23.5196997 23.1569986,23.7923391 C23.5962509,23.9438054 23.8840369,24.2164448 23.9597701,24.701137 C24.00521,25.0343629 23.8991835,25.3372956 23.7325706,25.6099349 C23.4144913,26.1703603 22.9146524,26.5490261 22.3693737,26.8519588 C22.233054,26.9276919 22.0967343,27.0034251 21.8998281,27.0943049 L21.9301214,27.1094515 Z" id="Path" fill="#0079BF"></path>
                        <path d="M16.6288001,28.0636894 C15.3110431,28.0333961 13.9781395,27.9576629 12.6755291,27.5638505 C12.3725964,27.4729707 12.0696638,27.3669443 11.7970244,27.1851847 C11.2517457,26.8368121 11.2517457,26.4429997 11.7970244,26.0946272 C12.26657,25.8068412 12.7815555,25.6553748 13.3116876,25.564495 C14.8717908,25.276709 16.4470405,25.1706826 18.0374369,25.3221489 C18.9765281,25.4130287 19.9156193,25.4887619 20.8092706,25.7916945 C21.08191,25.8825743 21.369696,26.0037474 21.5968954,26.1703603 C22.0058545,26.473293 22.0058545,26.8216655 21.5968954,27.1245982 C21.1576431,27.4426774 20.6426576,27.5789971 20.1276721,27.7001702 C18.9916747,27.9728096 17.825384,28.0333961 16.6288001,28.0636894 L16.6288001,28.0636894 Z" id="Path" fill="#F39600"></path>
                        <path d="M27.791868,5.29830116 C27.7009882,5.29830116 27.6404017,5.222568 27.5798152,5.1771281 C26.5801374,4.48038302 25.5501665,3.81393121 24.5050488,3.20806592 C24.3535825,3.11718612 24.2627027,2.99601307 24.2324094,2.82940011 C24.1869696,2.55676073 24.1112364,2.28412135 24.126383,1.99633534 C24.1415297,1.70854933 24.2778493,1.52678974 24.5656354,1.46620321 C24.701955,1.43590995 24.8382747,1.42076332 24.9745944,1.42076332 C25.7622193,1.42076332 26.5498442,1.42076332 27.337469,1.42076332 C27.4283488,1.42076332 27.5343753,1.42076332 27.6252551,1.45105658 C28.0645074,1.54193638 28.2765602,1.81457576 28.2008271,2.26897472 C28.1402406,2.69308042 28.0493608,3.10203949 28.0039209,3.52614519 C27.9281877,4.11686385 27.8676012,4.7075825 27.8070146,5.29830116 L27.791868,5.29830116 Z" id="Path" fill="#E10517"></path>
                        <path d="M21.8543882,27.3972375 C21.8543882,27.3972375 21.8543882,27.4578241 21.8543882,27.4881173 C21.8240949,27.4881173 21.7635084,27.5184106 21.7483618,27.4578241 C21.7483618,27.4123842 21.8089483,27.3972375 21.8543882,27.3972375 Z" id="Path" fill="#980E18"></path>
                        <path d="M8.57079176,19.8087748 C7.9800731,19.8087748 7.40450108,19.8087748 6.81378242,19.8087748 C6.10189071,19.8087748 5.64749174,19.3392292 5.64749174,18.6121909 C5.64749174,17.8397126 5.64749174,17.082381 5.64749174,16.3099028 C5.64749174,15.5980111 6.10189071,15.1436121 6.81378242,15.1284655 C7.99521973,15.1284655 9.16151041,15.1284655 10.3429477,15.1284655 C11.0396928,15.1284655 11.4789451,15.5980111 11.4940918,16.2947561 C11.4940918,17.082381 11.4940918,17.8548593 11.4940918,18.6424841 C11.4940918,19.3240826 11.0396928,19.7936282 10.3580944,19.7936282 C9.7673757,19.7936282 9.17665705,19.7936282 8.58593839,19.7936282 L8.57079176,19.8087748 Z" id="Path" fill="#1D1D1C"></path>
                        <path d="M24.7625416,19.8087748 C24.1718229,19.8087748 23.5962509,19.8087748 23.0055322,19.8087748 C22.2936405,19.8087748 21.8392416,19.3543758 21.8392416,18.6424841 C21.8392416,17.8548593 21.8392416,17.082381 21.8392416,16.2947561 C21.8392416,15.6131577 22.2936405,15.1436121 22.975239,15.1436121 C24.1718229,15.1436121 25.3532602,15.1436121 26.5498442,15.1436121 C27.2011494,15.1436121 27.670695,15.6283043 27.6858416,16.2796095 C27.6858416,17.082381 27.6858416,17.8700059 27.6858416,18.6727774 C27.6858416,19.3089359 27.216296,19.7936282 26.5649908,19.8087748 C25.9591255,19.8087748 25.3684069,19.8087748 24.7625416,19.8087748 L24.7625416,19.8087748 Z" id="Path" fill="#1D1D1C"></path>
                        <path d="M19.2340208,21.9444499 C18.9462348,21.9444499 18.734182,21.7021038 18.7493286,21.3991712 C18.7493286,21.1113852 18.9916747,20.8993323 19.2643141,20.8993323 C19.5369535,20.8993323 19.764153,21.1416784 19.764153,21.4143178 C19.764153,21.7021038 19.5369535,21.9293033 19.2491675,21.9293033 L19.2340208,21.9444499 Z" id="Path" fill="#1D1D1B"></path>
                        <path d="M8.54049849,19.6118686 C7.94977984,19.6118686 7.37420781,19.6118686 6.78348916,19.6118686 C6.22306377,19.6118686 5.82925133,19.2180561 5.82925133,18.6576308 C5.82925133,17.8548593 5.82925133,17.0672344 5.82925133,16.2644629 C5.82925133,15.7040375 6.22306377,15.3253717 6.76834253,15.310225 C7.96492647,15.310225 9.14636378,15.310225 10.3429477,15.310225 C10.9033731,15.310225 11.2820389,15.7040375 11.2971856,16.2493162 C11.2971856,17.0520877 11.2971856,17.8548593 11.2971856,18.6576308 C11.2971856,19.2029095 10.9033731,19.596722 10.3580944,19.596722 C9.75222907,19.596722 9.14636378,19.596722 8.54049849,19.596722 L8.54049849,19.6118686 Z" id="Path" fill="#0079BF"></path>
                        <path d="M24.7473949,15.3253717 C25.3381136,15.3253717 25.9136856,15.3253717 26.5044043,15.3253717 C27.0951229,15.3253717 27.4889354,15.7191841 27.4889354,16.3099028 C27.4889354,17.0975276 27.4889354,17.8700059 27.4889354,18.6576308 C27.4889354,19.2332028 27.0951229,19.6270152 26.5195509,19.6270152 C25.3381136,19.6270152 24.1718229,19.6270152 22.9903856,19.6270152 C22.399667,19.6270152 22.0210011,19.2483494 22.0210011,18.6576308 C22.0210011,17.8700059 22.0210011,17.082381 22.0210011,16.2947561 C22.0210011,15.7191841 22.399667,15.3405183 22.975239,15.3405183 C23.5659576,15.3405183 24.1566763,15.3405183 24.7473949,15.3405183 L24.7473949,15.3253717 Z" id="Path" fill="#0079BF"></path>
                        <path d="M8.23756585,15.7949173 L8.96460419,15.7949173 C9.04033736,15.8555038 9.04033736,15.9615302 9.07063062,16.0372634 C9.23724357,16.5825421 9.47958969,17.082381 9.91884202,17.4610468 C10.1006016,17.6276598 10.3278011,17.7336862 10.5550006,17.7942727 C10.6307337,17.824566 10.7216135,17.824566 10.7822001,17.9002991 C10.7822001,18.0366188 10.7822001,18.1729385 10.7822001,18.3092582 C10.7822001,18.7939504 10.4792674,19.1271764 9.99457518,19.1271764 C9.05548399,19.142323 8.11639279,19.1271764 7.1773016,19.1271764 C6.707756,19.1271764 6.41996999,18.8242437 6.37453009,18.3395515 C6.37453009,18.1880852 6.37453009,18.0366188 6.37453009,17.8851525 C6.64716947,17.7942727 6.95010211,17.7639795 7.19244823,17.5670732 C7.70743372,17.1884074 7.94977984,16.6431287 8.11639279,16.05241 C8.14668606,15.9615302 8.14668606,15.8555038 8.22241922,15.7797706 L8.23756585,15.7949173 Z" id="Path" fill="#1D1D1B"></path>
                        <path d="M8.23756585,15.7949173 C8.11639279,16.5219556 7.84375341,17.1581142 7.23788812,17.6125131 C6.99554201,17.8094194 6.707756,17.9154458 6.37453009,17.8851525 C6.37453009,17.4761934 6.37453009,17.0672344 6.37453009,16.6582753 C6.37453009,16.0978499 6.69260936,15.7797706 7.25303476,15.7797706 C7.57111403,15.7797706 7.90433994,15.7797706 8.22241922,15.7797706 L8.23756585,15.7949173 Z" id="Path" fill="#FEDE00"></path>
                        <path d="M10.7973467,17.9154458 C10.2823612,17.8548593 9.88854876,17.5973665 9.58561611,17.2035541 C9.26753684,16.794595 9.07063062,16.3250494 8.97975083,15.8100639 C9.31297673,15.8100639 9.66134928,15.8100639 9.99457518,15.8100639 C10.4792674,15.8100639 10.7973467,16.1281432 10.7973467,16.6128354 C10.7973467,17.0520877 10.7973467,17.4913401 10.7973467,17.9305924 L10.7973467,17.9154458 Z" id="Path" fill="#FEDE00"></path>
                        <path d="M26.9890965,17.9154458 C26.9890965,18.0366188 26.9890965,18.1577919 26.9890965,18.278965 C26.9890965,18.8090971 26.7013105,19.1271764 26.1711784,19.142323 C25.2472338,19.1574696 24.3232892,19.142323 23.3993447,19.142323 C22.8843592,19.142323 22.5814265,18.8090971 22.5814265,18.278965 C22.5814265,18.1577919 22.5814265,18.0366188 22.5814265,17.9154458 C22.6268664,17.8700059 22.687453,17.8548593 22.7480395,17.8397126 C23.4902245,17.7033929 23.8840369,17.1732608 24.1718229,16.5371023 C24.2778493,16.2947561 24.292996,16.0221168 24.4444623,15.7949173 C24.6868084,15.7949173 24.9291545,15.7949173 25.1715006,15.7949173 C25.2472338,15.8706504 25.2472338,15.9766769 25.2775271,16.0675567 C25.4895799,16.6734219 25.7470727,17.248994 26.3074981,17.6125131 C26.4438177,17.7033929 26.6104307,17.7639795 26.761897,17.8094194 C26.8376302,17.8397126 26.92851,17.8397126 26.9890965,17.9154458 Z" id="Path" fill="#1D1D1B"></path>
                        <path d="M24.4444623,15.8100639 C24.3535825,16.3856359 24.126383,16.9157681 23.7477172,17.3550204 C23.4447846,17.7033929 23.0661188,17.9002991 22.5965732,17.9154458 C22.5965732,17.4761934 22.5965732,17.0369411 22.5965732,16.5976888 C22.5965732,16.1281432 22.9297991,15.8100639 23.3993447,15.7949173 C23.7477172,15.7949173 24.0960898,15.7949173 24.4444623,15.7949173 L24.4444623,15.8100639 Z" id="Path" fill="#FEDE00"></path>
                        <path d="M26.9890965,17.9154458 C26.3832312,17.8397126 25.9591255,17.5064867 25.6561929,17.0066478 C25.4289934,16.627982 25.2472338,16.2341696 25.1715006,15.7949173 C25.5047266,15.7949173 25.8530991,15.7949173 26.186325,15.7949173 C26.6710172,15.7949173 26.9890965,16.1281432 26.9890965,16.6128354 C26.9890965,17.0369411 26.9890965,17.4761934 26.9890965,17.9002991 L26.9890965,17.9154458 Z" id="Path" fill="#FEDE00"></path>
                    </g>
                </g>
            </g>
        </g>
    </g>
</svg>