<?xml version="1.0" encoding="utf-8" ?>
<svg xmlns="http://www.w3.org/2000/svg" xmlns:xlink="http://www.w3.org/1999/xlink" width="150" height="14">
	<path fill="white" transform="translate(2.6 4.2)" d="M1.8 5.0999999L0 0L1.1 0L2.4000001 3.8L3.5999999 0L4.6999998 0L2.9000001 5.0999999L1.8 5.0999999Z"/>
	<path fill="white" transform="translate(9.9 4.2)" d="M0 0L1 0L1 5.0999999L0 5.0999999L0 0Z"/>
	<path fill="white" transform="translate(13.9 4.1)" d="M2.5 3.3L2.5 2.5L4.6999998 2.5L4.6999998 4.5C4.5 4.6999998 4.1999998 4.9000001 3.8 5C3.4000001 5.1999998 3 5.1999998 2.5999999 5.1999998C2.0999999 5.1999998 1.6 5.0999999 1.2 4.9000001C0.80000001 4.6999998 0.5 4.4000001 0.30000001 3.9000001C0.1 3.5 0 3 0 2.5999999C0 2.0999999 0.1 1.6 0.30000001 1.2C0.5 0.80000001 0.80000001 0.5 1.3 0.30000001C1.6 0.1 2 0 2.5 0C3.0999999 0 3.5999999 0.1 4 0.40000001C4.4000001 0.69999999 4.5999999 1 4.6999998 1.5L3.7 1.7C3.5999999 1.5 3.5 1.3 3.3 1.1C3 1 2.8 0.89999998 2.5 0.89999998C2.0999999 0.89999998 1.7 1 1.4 1.3C1.1 1.6 1 2 1 2.5999999C1 3.2 1.1 3.7 1.4 4C1.7 4.3000002 2 4.5 2.5 4.5C2.7 4.5 2.9000001 4.5 3.0999999 4.4000001C3.3 4.3000002 3.5 4.1999998 3.7 4.0999999L3.7 3.3L2.5 3.3Z"/>
	<path fill="white" transform="translate(21.6 4.2)" d="M0 0L1 0L1 5.0999999L0 5.0999999L0 0Z"/>
	<path fill="white" transform="translate(25.8 4.3)" d="M0 5L0 0L1 0L1 4.1999998L3.5 4.1999998L3.5 5.0999999L0 5.0999999L0 5Z"/>
	<path fill="white" transform="translate(31.8 4.2)" d="M5 5.0999999L3.9000001 5.0999999L3.5 3.9000001L1.5 3.9000001L1.1 5.0999999L0 5.0999999L2 0L3.0999999 0L5 5.0999999ZM3.0999999 3.0999999L2.4000001 1.2L1.7 3.0999999L3.0999999 3.0999999Z"/>
	<path fill="white" transform="translate(39.4 4.2)" d="M0 0L1.9 0C2.3 0 2.5999999 0 2.9000001 0.1C3.2 0.2 3.5 0.30000001 3.7 0.60000002C3.9000001 0.89999998 4.0999999 1.1 4.1999998 1.4C4.3000002 1.7 4.4000001 2.0999999 4.4000001 2.5999999C4.4000001 3 4.3000002 3.4000001 4.1999998 3.7C4.0999999 4.0999999 3.9000001 4.4000001 3.7 4.5999999C3.5 4.8000002 3.3 4.9000001 3 5C2.8 5.0999999 2.5 5.0999999 2.0999999 5.0999999L0.2 5.0999999L0.2 0L0 0ZM1.1 0.89999998L1.1 4.3000002L1.9 4.3000002C2.2 4.3000002 2.4000001 4.3000002 2.5 4.3000002C2.7 4.3000002 2.8 4.1999998 2.9000001 4.0999999C3 4 3.0999999 3.8 3.2 3.5999999C3.3 3.4000001 3.3 3.0999999 3.3 2.7C3.3 2.3 3.3 2 3.2 1.8C3.0999999 1.6 3 1.4 2.9000001 1.3C2.8 1.2 2.5999999 1.1 2.4000001 1.1C2.3 1.1 2 1.1 1.6 1.1L1.1 1.1L1.1 0.89999998Z"/>
	<path fill="white" transform="translate(46.5 4.1)" d="M0 2.7C0 2.2 0.1 1.8 0.2 1.4C0.30000001 1.1 0.5 0.89999998 0.69999999 0.69999999C0.89999998 0.5 1.1 0.30000001 1.4 0.2C1.7 0.1 2.0999999 0 2.5 0C3.2 0 3.8 0.2 4.3000002 0.69999999C4.6999998 1.2 5 1.8 5 2.5999999C5 3.4000001 4.8000002 4.0999999 4.3000002 4.5C3.9000001 5 3.3 5.1999998 2.5 5.1999998C1.7 5.1999998 1.1 5 0.69999999 4.5C0.2 4.0999999 0 3.5 0 2.7ZM1 2.5999999C1 3.2 1.1 3.5999999 1.4 3.9000001C1.7 4.1999998 2 4.3000002 2.4000001 4.3000002C2.8 4.3000002 3.0999999 4.1999998 3.4000001 3.9000001C3.7 3.5999999 3.8 3.2 3.8 2.5999999C3.8 2 3.7 1.6 3.4000001 1.3C3.0999999 1 2.8 0.89999998 2.4000001 0.89999998C2 0.89999998 1.6 1 1.4 1.3C1.2 1.6 1 2 1 2.5999999Z"/>
	<path fill="white" transform="translate(56.8 1.6)" d="M0 2.7L0.80000001 2.5999999C0.80000001 2.9000001 0.89999998 3.0999999 1.1 3.2C1.3 3.3 1.4 3.4000001 1.6 3.4000001C1.9 3.4000001 2.0999999 3.3 2.2 3.2C2.3 3.0999999 2.4000001 3 2.4000001 2.8C2.4000001 2.7 2.4000001 2.5999999 2.3 2.5999999C2.3 2.5 2.2 2.5 2.0999999 2.4000001C2 2.4000001 1.8 2.3 1.5 2.2C1.1 2.0999999 0.80000001 2 0.60000002 1.8C0.2 1.6 0.1 1.4 0.1 1.1C0.1 0.89999998 0.2 0.69999999 0.30000001 0.5C0.40000001 0.30000001 0.60000002 0.2 0.80000001 0.1C1 0 1.3 0 1.6 0C2.0999999 0 2.5 0.1 2.7 0.30000001C2.9000001 0.5 3.0999999 0.80000001 3.0999999 1.2L2.3 1.2C2.3 1 2.2 0.80000001 2.0999999 0.80000001C2 0.69999999 1.8 0.69999999 1.6 0.69999999C1.4 0.69999999 1.2 0.69999999 1 0.80000001C0.89999998 0.89999998 0.89999998 0.89999998 0.89999998 1C0.89999998 1.1 0.89999998 1.2 1 1.2C1.1 1.3 1.4 1.4 1.7 1.5C2.0999999 1.6 2.4000001 1.7 2.5999999 1.8C2.8 1.9 2.9000001 2 3 2.2C3.2 2.4000001 3.2 2.5999999 3.2 2.8C3.2 3 3.0999999 3.2 3 3.4000001C2.9000001 3.5999999 2.7 3.7 2.5 3.8C2.3 3.9000001 2 3.9000001 1.6 3.9000001C1.1 3.9000001 0.69999999 3.8 0.40000001 3.5C0.1 3.2 0 3.2 0 2.7Z"/>
	<path fill="white" transform="translate(60.6 1.6)" d="M0.1 0L0.89999998 0L0.89999998 2.2C0.89999998 2.5 0.89999998 2.8 0.89999998 2.9000001C0.89999998 3.0999999 1 3.2 1.1 3.3C1.2 3.4000001 1.5 3.4000001 1.7 3.4000001C1.9 3.4000001 2.0999999 3.4000001 2.2 3.3C2.4000001 3.2 2.4000001 3 2.5 2.9000001C2.5 2.8 2.5 2.5 2.5 2.2L2.5 0L3.3 0L3.3 2.0999999C3.3 2.5999999 3.3 2.9000001 3.2 3.0999999C3.2 3.3 3.0999999 3.5 3 3.5999999C2.9000001 3.7 2.7 3.8 2.5 3.9000001C2.3 4 2 4 1.7 4C1.3 4 1 4 0.80000001 3.9000001C0.60000002 3.8 0.40000001 3.7 0.30000001 3.5999999C0.2 3.5 0.1 3.3 0.1 3.2C0 3 0 2.5999999 0 2.2L0 0L0.1 0Z"/>
	<path fill="white" transform="translate(64.8 1.6)" d="M0 4L0 0L1.3 0C1.8 0 2.0999999 0 2.3 0.1C2.5 0.2 2.7 0.30000001 2.9000001 0.5C3.0999999 0.69999999 3.0999999 1 3.0999999 1.3C3.0999999 1.5 3.0999999 1.8 3 1.9C2.9000001 2.0999999 2.8 2.2 2.7 2.3C2.4000001 2.3 2.3 2.4000001 2.0999999 2.4000001C1.9 2.4000001 1.6 2.5 1.3 2.5L0.80000001 2.5L0.80000001 4L0 4ZM0.80000001 0.69999999L0.80000001 1.8L1.2 1.8C1.5 1.8 1.7 1.8 1.8 1.7C1.9 1.7 2 1.6 2.0999999 1.5C2.2 1.5 2.2 1.4 2.2 1.2C2.2 1.1 2.2 0.89999998 2.0999999 0.80000001C2 0.69999999 1.9 0.60000002 1.8 0.60000002C1.7 0.60000002 1.5 0.60000002 1.2 0.60000002L0.80000001 0.60000002L0.80000001 0.69999999Z"/>
	<path fill="white" transform="translate(68.5 1.6)" d="M0 4L0 0L3 0L3 0.69999999L0.80000001 0.69999999L0.80000001 1.6L2.8 1.6L2.8 2.3L0.80000001 2.3L0.80000001 3.4000001L3 3.4000001L3 4.0999999L0 4.0999999L0 4Z"/>
	<path fill="white" transform="translate(72.2 1.6)" d="M0 4L0 0L1.7 0C2.0999999 0 2.4000001 0 2.5999999 0.1C2.8 0.2 2.9000001 0.30000001 3.0999999 0.5C3.2 0.69999999 3.3 0.89999998 3.3 1.1C3.3 1.4 3.2 1.6 3 1.8C2.8 2 2.5999999 2.0999999 2.2 2.2C2.4000001 2.3 2.5 2.4000001 2.5999999 2.5C2.7 2.5999999 2.9000001 2.8 3.0999999 3.2L3.5999999 4L2.5999999 4L2 3.0999999C1.8 2.8 1.6 2.5999999 1.6 2.5C1.6 2.5 1.5 2.4000001 1.4 2.4000001C1.3 2.4000001 1.2 2.4000001 1 2.4000001L0.80000001 2.4000001L0.80000001 4.0999999L0 4.0999999L0 4ZM0.80000001 1.7L1.4 1.7C1.8 1.7 2 1.7 2.0999999 1.7C2.2 1.7 2.3 1.6 2.3 1.5C2.4000001 1.4 2.4000001 1.3 2.4000001 1.2C2.4000001 1.1 2.4000001 1 2.3 0.89999998C2.2 0.80000001 2.0999999 0.80000001 2 0.69999999C1.9 0.69999999 1.7 0.69999999 1.4 0.69999999L0.80000001 0.69999999L0.80000001 1.7Z"/>
	<path fill="white" transform="translate(76.2 1.6)" d="M0.1 0L0.90000004 0L0.90000004 4L0.1 4L0.1 0Z"/>
	<path fill="white" transform="translate(77.8 1.6)" d="M0 4L0 0L0.80000001 0L2.4000001 2.7L2.4000001 0L3.2 0L3.2 4L2.4000001 4L0.80000001 1.4L0.80000001 4L0 4Z"/>
	<path fill="white" transform="translate(81.6 1.6)" d="M1.2 4L1.2 0.69999999L0 0.69999999L0 0L3.2 0L3.2 0.69999999L2 0.69999999L2 4L1.2 4Z"/>
	<path fill="white" transform="translate(85.3 1.6)" d="M0 4L0 0L3 0L3 0.69999999L0.80000001 0.69999999L0.80000001 1.6L2.8 1.6L2.8 2.3L0.80000001 2.3L0.80000001 3.4000001L3 3.4000001L3 4.0999999L0 4.0999999L0 4Z"/>
	<path fill="white" transform="translate(89 1.6)" d="M0 4L0 0L0.80000001 0L2.4000001 2.7L2.4000001 0L3.2 0L3.2 4L2.4000001 4L0.80000001 1.4L0.80000001 4L0 4Z"/>
	<path fill="white" transform="translate(93.1 1.6)" d="M0 0L1.5 0C1.8 0 2.0999999 0 2.3 0.1C2.5 0.2 2.7 0.30000001 2.9000001 0.5C3.0999999 0.69999999 3.2 0.89999998 3.3 1.1C3.4000001 1.4 3.4000001 1.7 3.4000001 2C3.4000001 2.3 3.4000001 2.5999999 3.3 2.9000001C3.2 3.2 3.0999999 3.4000001 2.9000001 3.5999999C2.8 3.7 2.5999999 3.8 2.3 3.9000001C2.0999999 4 1.9 4 1.6 4L0.1 4L0.1 0L0 0ZM0.80000001 0.69999999L0.80000001 3.4000001L1.4 3.4000001C1.6 3.4000001 1.8 3.4000001 1.9 3.4000001C2 3.4000001 2.0999999 3.3 2.2 3.2C2.3 3.0999999 2.4000001 3 2.4000001 2.8C2.4000001 2.5999999 2.5 2.4000001 2.5 2.0999999C2.5 1.8 2.5 1.6 2.4000001 1.4C2.3 1.2 2.3 1.1 2.2 1C2.0999999 0.89999998 2 0.80000001 1.8 0.80000001C1.7 0.80000001 1.5 0.80000001 1.1 0.80000001L0.80000001 0.80000001L0.80000001 0.69999999Z"/>
	<path fill="white" transform="translate(97.1 1.6)" d="M0 4L0 0L3 0L3 0.69999999L0.80000001 0.69999999L0.80000001 1.6L2.8 1.6L2.8 2.3L0.80000001 2.3L0.80000001 3.4000001L3 3.4000001L3 4.0999999L0 4.0999999L0 4Z"/>
	<path fill="white" transform="translate(100.9 1.6)" d="M0 4L0 0L0.80000001 0L2.4000001 2.7L2.4000001 0L3.2 0L3.2 4L2.4000001 4L0.69999999 1.4L0.69999999 4L0 4Z"/>
	<path fill="white" transform="translate(104.8 1.4)" d="M2.7 2.7L3.5 2.9000001C3.4000001 3.3 3.2 3.7 2.9000001 3.9000001C2.5999999 4.0999999 2.3 4.1999998 1.8 4.1999998C1.3 4.1999998 0.80000001 4 0.5 3.7C0.2 3.3 0 2.8 0 2.2C0 1.5 0.2 1 0.5 0.60000002C0.80000001 0.2 1.3 0 1.9 0C2.4000001 0 2.8 0.1 3.0999999 0.40000001C3.3 0.60000002 3.4000001 0.80000001 3.5 1.1L2.7 1.3C2.7 1.1 2.5999999 0.89999998 2.4000001 0.80000001C2.2 0.69999999 2.0999999 0.60000002 1.9 0.60000002C1.6 0.60000002 1.4 0.69999999 1.2 0.89999998C1 1.1 0.89999998 1.5 0.89999998 1.9C0.89999998 2.4000001 1 2.8 1.2 3C1.4 3.2 1.6 3.3 1.9 3.3C2.0999999 3.3 2.3 3.2 2.5 3.0999999C2.5 3.2 2.5999999 3 2.7 2.7Z"/>
	<path fill="white" transform="translate(108.8 1.6)" d="M0.1 0L0.90000004 0L0.90000004 4L0.1 4L0.1 0Z"/>
	<path fill="white" transform="translate(110.1 1.6)" d="M4 4L3.0999999 4L2.8 3.0999999L1.2 3.0999999L0.89999998 4L0 4L1.6 0L2.5 0L4 4ZM2.5 2.4000001L1.9 0.89999998L1.4 2.4000001L2.5 2.4000001Z"/>
	<path fill="white" transform="translate(115.9 1.6)" d="M0 4L0 0L2.7 0L2.7 0.69999999L0.80000001 0.69999999L0.80000001 1.6L2.5 1.6L2.5 2.3L0.80000001 2.3L0.80000001 4L0 4L0 4Z"/>
	<path fill="white" transform="translate(119.2 1.6)" d="M0.1 0L0.90000004 0L0.90000004 4L0.1 4L0.1 0Z"/>
	<path fill="white" transform="translate(120.9 1.6)" d="M0 4L0 0L0.80000001 0L2.4000001 2.7L2.4000001 0L3.2 0L3.2 4L2.4000001 4L0.69999999 1.4L0.69999999 4L0 4Z"/>
	<path fill="white" transform="translate(124.5 1.6)" d="M4 4L3.0999999 4L2.8 3.0999999L1.2 3.0999999L0.89999998 4L0 4L1.6 0L2.5 0L4 4ZM2.5 2.4000001L1.9 0.89999998L1.4 2.4000001L2.5 2.4000001Z"/>
	<path fill="white" transform="translate(129 1.6)" d="M0 4L0 0L0.80000001 0L2.4000001 2.7L2.4000001 0L3.2 0L3.2 4L2.4000001 4L0.69999999 1.4L0.69999999 4L0 4Z"/>
	<path fill="white" transform="translate(132.9 1.4)" d="M2.7 2.7L3.5 2.9000001C3.4000001 3.3 3.2 3.7 2.9000001 3.9000001C2.5999999 4.0999999 2.3 4.1999998 1.8 4.1999998C1.3 4.1999998 0.80000001 4 0.5 3.7C0.2 3.3 0 2.8 0 2.2C0 1.5 0.2 1 0.5 0.60000002C0.80000001 0.2 1.3 0 1.9 0C2.4000001 0 2.8 0.1 3.0999999 0.40000001C3.3 0.60000002 3.4000001 0.80000001 3.5 1.1L2.7 1.3C2.7 1.1 2.5999999 0.89999998 2.4000001 0.80000001C2.2 0.69999999 2.0999999 0.60000002 1.9 0.60000002C1.6 0.60000002 1.4 0.69999999 1.2 0.89999998C1 1.1 0.89999998 1.5 0.89999998 1.9C0.89999998 2.4000001 1 2.8 1.2 3C1.4 3.2 1.6 3.3 1.9 3.3C2.0999999 3.3 2.3 3.2 2.5 3.0999999C2.5 3.2 2.5999999 3 2.7 2.7Z"/>
	<path fill="white" transform="translate(136.9 1.6)" d="M0.1 0L0.90000004 0L0.90000004 4L0.1 4L0.1 0Z"/>
	<path fill="white" transform="translate(138.6 1.6)" d="M0 4L0 0L3 0L3 0.69999999L0.80000001 0.69999999L0.80000001 1.6L2.8 1.6L2.8 2.3L0.80000001 2.3L0.80000001 3.4000001L3 3.4000001L3 4.0999999L0 4.0999999L0 4Z"/>
	<path fill="white" transform="translate(142.3 1.6)" d="M0 4L0 0L1.7 0C2.0999999 0 2.4000001 0 2.5999999 0.1C2.8 0.2 2.9000001 0.30000001 3.0999999 0.5C3.2 0.69999999 3.3 0.89999998 3.3 1.1C3.3 1.4 3.2 1.6 3 1.8C2.8 2 2.5999999 2.0999999 2.2 2.2C2.4000001 2.3 2.5 2.4000001 2.5999999 2.5C2.7 2.5999999 2.9000001 2.8 3.0999999 3.2L3.5999999 4L2.5999999 4L2 3.0999999C1.8 2.8 1.7 2.5999999 1.6 2.5C1.5 2.4000001 1.4 2.4000001 1.4 2.3C1.3 2.3 1.2 2.3 1 2.3L0.80000001 2.3L0.80000001 4L0 4ZM0.80000001 1.7L1.4 1.7C1.8 1.7 2 1.7 2.0999999 1.7C2.2 1.7 2.3 1.6 2.3 1.5C2.4000001 1.4 2.4000001 1.3 2.4000001 1.2C2.4000001 1.1 2.4000001 1 2.3 0.89999998C2.2 0.80000001 2.0999999 0.80000001 2 0.69999999C1.9 0.69999999 1.7 0.69999999 1.4 0.69999999L0.80000001 0.69999999L0.80000001 1.7L0.80000001 1.7Z"/>
	<path fill="white" transform="translate(146 1.6)" d="M4 4L3.0999999 4L2.8 3.0999999L1.2 3.0999999L0.89999998 4L0 4L1.6 0L2.5 0L4 4ZM2.5 2.4000001L2 0.89999998L1.4 2.4000001L2.5 2.4000001Z"/>
	<path fill="white" transform="translate(83.8 8.3)" d="M0 0L1.5 0C1.8 0 2.0999999 0 2.3 0.1C2.5 0.2 2.7 0.30000001 2.9000001 0.5C3.0999999 0.69999999 3.2 0.89999998 3.3 1.1C3.4000001 1.4 3.4000001 1.7 3.4000001 2C3.4000001 2.3 3.4000001 2.5999999 3.3 2.9000001C3.2 3.2 3.0999999 3.4000001 2.9000001 3.5999999C2.8 3.7 2.5999999 3.8 2.3 3.9000001C2.0999999 4 1.9 4 1.6 4L0.1 4L0.1 0L0 0ZM0.80000001 0.69999999L0.80000001 3.4000001L1.4 3.4000001C1.6 3.4000001 1.8 3.4000001 1.9 3.4000001C2 3.4000001 2.0999999 3.3 2.2 3.2C2.3 3.0999999 2.4000001 3 2.4000001 2.8C2.4000001 2.5999999 2.5 2.4000001 2.5 2.0999999C2.5 1.8 2.5 1.6 2.4000001 1.4C2.3 1.2 2.3 1.1 2.2 1C2.0999999 0.89999998 2 0.80000001 1.8 0.80000001C1.7 0.80000001 1.5 0.80000001 1.1 0.80000001L0.80000001 0.80000001L0.80000001 0.69999999Z"/>
	<path fill="white" transform="translate(87.8 8.3)" d="M0 4L0 0L3 0L3 0.69999999L0.80000001 0.69999999L0.80000001 1.6L2.8 1.6L2.8 2.3L0.80000001 2.3L0.80000001 3.4000001L3 3.4000001L3 4.0999999L0 4.0999999L0 4Z"/>
	<path fill="white" transform="translate(93 8.2)" d="M2.7 2.7L3.5 2.9000001C3.4000001 3.3 3.2 3.7 2.9000001 3.9000001C2.5999999 4.0999999 2.3 4.1999998 1.8 4.1999998C1.3 4.1999998 0.80000001 4 0.5 3.7C0.2 3.3 0 2.8 0 2.2C0 1.5 0.2 1 0.5 0.60000002C0.80000001 0.2 1.3 0 1.9 0C2.4000001 0 2.8 0.1 3.0999999 0.40000001C3.3 0.60000002 3.4000001 0.80000001 3.5 1.1L2.7 1.3C2.7 1.1 2.5999999 0.89999998 2.4000001 0.80000001C2.2 0.80000001 2 0.69999999 1.8 0.69999999C1.5 0.69999999 1.3 0.80000001 1.1 1C0.89999998 1.2 0.80000001 1.6 0.80000001 2C0.80000001 2.5 0.89999998 2.9000001 1.1 3.0999999C1.3 3.3 1.5 3.4000001 1.8 3.4000001C2 3.4000001 2.2 3.3 2.4000001 3.2C2.5 3.2 2.5999999 2.9000001 2.7 2.7Z"/>
	<path fill="white" transform="translate(97 8.3)" d="M0 2.0999999C0 1.7 0.1 1.3 0.2 1.1C0.30000001 0.89999998 0.40000001 0.69999999 0.60000002 0.60000002C0.80000001 0.40000001 0.89999998 0.30000001 1.1 0.2C1.3 0.1 1.6 0 2 0C2.5999999 0 3.0999999 0.2 3.4000001 0.5C3.7 0.80000001 3.9000001 1.4 3.9000001 2C3.9000001 2.5999999 3.7 3.2 3.4000001 3.5C3 3.9000001 2.5999999 4 2 4C1.4 4 0.89999998 3.8 0.60000002 3.5C0.2 3.2 0 2.7 0 2.0999999ZM0.80000001 2C0.80000001 2.5 0.89999998 2.8 1.1 3C1.3 3.2 1.6 3.4000001 1.9 3.4000001C2.2 3.4000001 2.5 3.3 2.7 3.0999999C2.9000001 2.9000001 3 2.5 3 2.0999999C3 1.6 2.9000001 1.3 2.7 1.1C2.5 0.89999998 2.2 0.80000001 1.9 0.80000001C1.6 0.80000001 1.3 0.89999998 1.1 1.1C0.89999998 1.2 0.80000001 1.6 0.80000001 2Z"/>
	<path fill="white" transform="translate(101.6 8.3)" d="M0 4L0 0L0.80000001 0L0.80000001 3.3L2.8 3.3L2.8 4L0 4Z"/>
	<path fill="white" transform="translate(104.8 8.3)" d="M0 2.0999999C0 1.7 0.1 1.3 0.2 1.1C0.30000001 0.89999998 0.40000001 0.69999999 0.60000002 0.60000002C0.80000001 0.40000001 0.89999998 0.30000001 1.1 0.2C1.3 0.1 1.6 0 2 0C2.5999999 0 3.0999999 0.2 3.4000001 0.5C3.7 0.80000001 3.9000001 1.4 3.9000001 2C3.9000001 2.5999999 3.7 3.2 3.4000001 3.5C3 3.9000001 2.5999999 4 2 4C1.4 4 0.89999998 3.8 0.60000002 3.5C0.2 3.2 0 2.7 0 2.0999999ZM0.80000001 2C0.80000001 2.5 0.89999998 2.8 1.1 3C1.3 3.2 1.6 3.4000001 1.9 3.4000001C2.2 3.4000001 2.5 3.3 2.7 3.0999999C2.9000001 2.9000001 3 2.5 3 2.0999999C3 1.6 2.9000001 1.3 2.7 1.1C2.5 0.89999998 2.2 0.80000001 1.9 0.80000001C1.6 0.80000001 1.3 0.89999998 1.1 1.1C0.89999998 1.2 0.80000001 1.6 0.80000001 2Z"/>
	<path fill="white" transform="translate(109.3 8.3)" d="M0 4L0 0L1.2 0L1.9 2.7L2.5999999 0L3.8 0L3.8 4L3 4L3 0.80000001L2.2 4L1.4 4L0.60000002 0.80000001L0.60000002 4L0 4Z"/>
	<path fill="white" transform="translate(114 8.3)" d="M0 0L1.6 0C1.9 0 2.2 0 2.3 0C2.5 0 2.5999999 0.1 2.7 0.2C2.8 0.30000001 2.9000001 0.40000001 3 0.5C3.0999999 0.60000002 3.0999999 0.80000001 3.0999999 1C3.0999999 1.2 3 1.4 2.9000001 1.5C2.8 1.7 2.7 1.8 2.5 1.9C2.7 2 2.9000001 2.0999999 3.0999999 2.3C3.2 2.5 3.3 2.7 3.3 2.9000001C3.3 3.0999999 3.3 3.3 3.2 3.4000001C3.0999999 3.5999999 3 3.7 2.9000001 3.8C2.8 3.9000001 2.5999999 4 2.4000001 4C2.3 4 1.9 4 1.4 4L0 4L0 0ZM0.80000001 0.69999999L0.80000001 1.6L1.3 1.6C1.6 1.6 1.8 1.6 1.9 1.6C2 1.6 2.0999999 1.5 2.2 1.5C2.3 1.4 2.3 1.3 2.3 1.2C2.3 1.1 2.3 1 2.2 0.89999998C2.0999999 0.80000001 2 0.80000001 1.9 0.80000001C1.8 0.80000001 1.6 0.80000001 1.2 0.80000001L0.80000001 0.80000001L0.80000001 0.69999999ZM0.80000001 2.3L0.80000001 3.4000001L1.5 3.4000001C1.8 3.4000001 2 3.4000001 2.0999999 3.4000001C2.2 3.4000001 2.3 3.3 2.4000001 3.2C2.5 3.0999999 2.5 3 2.5 2.9000001C2.5 2.8 2.5 2.7 2.4000001 2.5999999C2.3 2.5 2.3 2.5 2.0999999 2.4000001C2 2.4000001 1.8 2.3 1.4 2.3L0.80000001 2.3Z"/>
	<path fill="white" transform="translate(117.9 8.3)" d="M0.1 0L0.90000004 0L0.90000004 4L0.1 4L0.1 0Z"/>
	<path fill="white" transform="translate(119.2 8.3)" d="M4 4L3.0999999 4L2.8 3.0999999L1.2 3.0999999L0.89999998 4L0 4L1.6 0L2.5 0L4 4ZM2.5 2.4000001L1.9 0.89999998L1.4 2.4000001L2.5 2.4000001Z"/>
	<path fill="white" d="M0 0L53.400002 0L53.400002 1.2L0 1.2L0 0Z"/>
	<path fill="white" transform="translate(0 12)" d="M0 0L53.400002 0L53.400002 1.2L0 1.2L0 0Z"/>
</svg>
